REM DIRINDEX 1\2,1\3,1\4,1\5,1\6
REM DIRNAME folder01,folder02,folder03,folder04,folder05,folder06
TITLE ""
FILE "Disc6Track52.mp3" MP3
  TRACK 01 AUDIO
    TITLE "3:cjc030_11945"
    INDEX 01 00:00:00
  TRACK 02 AUDIO
    TITLE "0:"
    INDEX 01 00:01:13
  TRACK 03 AUDIO
    TITLE "4:cjc030_11946"
    INDEX 01 00:01:22
  TRACK 04 AUDIO
    TITLE "0:"
    INDEX 01 00:02:38
  TRACK 05 AUDIO
    TITLE "5:cjc030_11947"
    INDEX 01 00:02:47
  TRACK 06 AUDIO
    TITLE "0:"
    INDEX 01 00:03:66
  TRACK 07 AUDIO
    TITLE "6:cjc030_11948"
    INDEX 01 00:04:01
  TRACK 08 AUDIO
    TITLE "0:"
    INDEX 01 00:08:01
  TRACK 09 AUDIO
    TITLE "3:cjc030_11949"
    INDEX 01 00:08:50
  TRACK 10 AUDIO
    TITLE "0:"
    INDEX 01 00:10:04
  TRACK 11 AUDIO
    TITLE "4:cjc030_11950"
    INDEX 01 00:10:14
  TRACK 12 AUDIO
    TITLE "0:"
    INDEX 01 00:10:70
  TRACK 13 AUDIO
    TITLE "5:cjc030_11951"
    INDEX 01 00:11:03
  TRACK 14 AUDIO
    TITLE "0:"
    INDEX 01 00:12:36
  TRACK 15 AUDIO
    TITLE "3:cjc030_11952"
    INDEX 01 00:13:16
  TRACK 16 AUDIO
    TITLE "0:"
    INDEX 01 00:14:37
  TRACK 17 AUDIO
    TITLE "4:cjc030_11953"
    INDEX 01 00:14:47
  TRACK 18 AUDIO
    TITLE "0:"
    INDEX 01 00:16:20
  TRACK 19 AUDIO
    TITLE "5:cjc030_11954"
    INDEX 01 00:16:30
  TRACK 20 AUDIO
    TITLE "0:"
    INDEX 01 00:17:53
  TRACK 21 AUDIO
    TITLE "6:cjc030_11955"
    INDEX 01 00:17:63
  TRACK 22 AUDIO
    TITLE "0:"
    INDEX 01 00:22:34
  TRACK 23 AUDIO
    TITLE "3:cjc030_11956"
    INDEX 01 00:23:06
  TRACK 24 AUDIO
    TITLE "0:"
    INDEX 01 00:24:27
  TRACK 25 AUDIO
    TITLE "4:cjc030_11957"
    INDEX 01 00:24:41
  TRACK 26 AUDIO
    TITLE "0:"
    INDEX 01 00:25:60
  TRACK 27 AUDIO
    TITLE "5:cjc030_11958"
    INDEX 01 00:25:70
  TRACK 28 AUDIO
    TITLE "0:"
    INDEX 01 00:27:20
  TRACK 29 AUDIO
    TITLE "3:cjc030_11959"
    INDEX 01 00:28:00
  TRACK 30 AUDIO
    TITLE "0:"
    INDEX 01 00:29:03
  TRACK 31 AUDIO
    TITLE "4:cjc030_11960"
    INDEX 01 00:29:15
  TRACK 32 AUDIO
    TITLE "0:"
    INDEX 01 00:30:14
  TRACK 33 AUDIO
    TITLE "5:cjc030_11961"
    INDEX 01 00:30:24
  TRACK 34 AUDIO
    TITLE "0:"
    INDEX 01 00:31:29
  TRACK 35 AUDIO
    TITLE "3:cjc030_11962"
    INDEX 01 00:32:05
  TRACK 36 AUDIO
    TITLE "0:"
    INDEX 01 00:33:13
  TRACK 37 AUDIO
    TITLE "4:cjc030_11963"
    INDEX 01 00:33:24
  TRACK 38 AUDIO
    TITLE "0:"
    INDEX 01 00:34:36
  TRACK 39 AUDIO
    TITLE "5:cjc030_11964"
    INDEX 01 00:34:45
  TRACK 40 AUDIO
    TITLE "0:"
    INDEX 01 00:35:55
  TRACK 41 AUDIO
    TITLE "3:cjc030_11965"
    INDEX 01 00:36:33
  TRACK 42 AUDIO
    TITLE "0:"
    INDEX 01 00:37:28
  TRACK 43 AUDIO
    TITLE "4:cjc030_11966"
    INDEX 01 00:37:40
  TRACK 44 AUDIO
    TITLE "0:"
    INDEX 01 00:39:09
  TRACK 45 AUDIO
    TITLE "5:cjc030_11967"
    INDEX 01 00:39:19
  TRACK 46 AUDIO
    TITLE "0:"
    INDEX 01 00:40:17
  TRACK 47 AUDIO
    TITLE "6:cjc030_11968"
    INDEX 01 00:40:26
  TRACK 48 AUDIO
    TITLE "0:"
    INDEX 01 00:44:01
  TRACK 49 AUDIO
    TITLE "3:cjc030_11969"
    INDEX 01 00:44:46
  TRACK 50 AUDIO
    TITLE "0:"
    INDEX 01 00:45:55
  TRACK 51 AUDIO
    TITLE "4:cjc030_11970"
    INDEX 01 00:45:67
  TRACK 52 AUDIO
    TITLE "0:"
    INDEX 01 00:46:74
  TRACK 53 AUDIO
    TITLE "5:cjc030_11971"
    INDEX 01 00:47:09
  TRACK 54 AUDIO
    TITLE "0:"
    INDEX 01 00:48:20
  TRACK 55 AUDIO
    TITLE "6:cjc030_11972"
    INDEX 01 00:48:30
  TRACK 56 AUDIO
    TITLE "0:"
    INDEX 01 00:53:11
  TRACK 57 AUDIO
    TITLE "3:cjc030_11973"
    INDEX 01 00:53:57
  TRACK 58 AUDIO
    TITLE "0:"
    INDEX 01 00:54:60
  TRACK 59 AUDIO
    TITLE "4:cjc030_11974"
    INDEX 01 00:54:70
  TRACK 60 AUDIO
    TITLE "0:"
    INDEX 01 00:56:10
  TRACK 61 AUDIO
    TITLE "5:cjc030_11975"
    INDEX 01 00:56:20
  TRACK 62 AUDIO
    TITLE "0:"
    INDEX 01 00:57:27
  TRACK 63 AUDIO
    TITLE "6:cjc030_11976"
    INDEX 01 00:57:39
  TRACK 64 AUDIO
    TITLE "0:"
    INDEX 01 01:00:39
  TRACK 65 AUDIO
    TITLE "3:cjc030_11977"
    INDEX 01 01:01:09
  TRACK 66 AUDIO
    TITLE "0:"
    INDEX 01 01:02:12
  TRACK 67 AUDIO
    TITLE "4:cjc030_11978"
    INDEX 01 01:02:26
  TRACK 68 AUDIO
    TITLE "0:"
    INDEX 01 01:03:27
  TRACK 69 AUDIO
    TITLE "5:cjc030_11979"
    INDEX 01 01:03:33
  TRACK 70 AUDIO
    TITLE "0:"
    INDEX 01 01:04:43
